<?xml version="1.0" encoding="UTF-8" standalone="no"?>
<svg
   width="200"
   height="180"
   viewBox="0 0 200 180"
   version="1.1"
   id="svg18"
   sodipodi:docname="logo2.svg"
   inkscape:version="1.4.3 (0d15f75, 2025-12-25)"
   xmlns:inkscape="http://www.inkscape.org/namespaces/inkscape"
   xmlns:sodipodi="http://sodipodi.sourceforge.net/DTD/sodipodi-0.dtd"
   xmlns="http://www.w3.org/2000/svg"
   xmlns:svg="http://www.w3.org/2000/svg">
  <defs
     id="defs18">
    <inkscape:path-effect
       effect="envelope"
       id="path-effect43"
       is_visible="true"
       lpeversion="1"
       yy="true"
       xx="true"
       bendpath1="m 38.845736,72.472053 c 32.304069,-6.495881 65.161294,-4.141284 98.130184,0"
       bendpath2="m 136.97592,72.472053 c 0.74243,32.150657 -0.74243,43.473307 0,78.011647"
       bendpath3="m 38.845736,150.4837 c 27.520427,1.49962 68.965844,1.89443 98.130184,0"
       bendpath4="m 38.845736,72.472053 c 1.687112,14.132485 1.367357,61.087467 0,78.011647"
       bendpath1-nodetypes="cc"
       bendpath2-nodetypes="cc"
       bendpath4-nodetypes="cc"
       bendpath3-nodetypes="cc" />
    <inkscape:path-effect
       effect="perspective-envelope"
       up_left_point="18.487368,72.472666"
       up_right_point="152.85709,72.472666"
       down_left_point="41.42454,150.97174"
       down_right_point="135.71048,150.22034"
       id="path-effect42"
       is_visible="true"
       lpeversion="1"
       deform_type="perspective"
       horizontal_mirror="false"
       vertical_mirror="false"
       overflow_perspective="false" />
    <inkscape:path-effect
       effect="envelope"
       id="path-effect41"
       is_visible="true"
       lpeversion="1"
       yy="true"
       xx="true"
       bendpath1="M 18.487368,72.472666 H 152.85709"
       bendpath2="M 152.85709,72.472666 V 153.74776"
       bendpath3="M 18.487368,153.74776 H 152.85709"
       bendpath4="M 18.487368,72.472666 V 153.74776" />
    <inkscape:path-effect
       effect="bend_path"
       id="path-effect40"
       is_visible="true"
       lpeversion="1"
       bendpath="m 28.301054,108.51316 c 37.876912,10.97793 77.035046,9.14363 116.924116,0"
       prop_scale="1"
       scale_y_rel="false"
       vertical="false"
       hide_knot="false"
       bendpath-nodetypes="cc" />
    <inkscape:path-effect
       effect="bend_path"
       id="path-effect39"
       is_visible="true"
       lpeversion="1"
       bendpath="m 37.289837,104.43673 c 39.327341,10.37375 70.694173,6.94927 100.027463,0"
       prop_scale="1"
       scale_y_rel="false"
       vertical="false"
       hide_knot="false"
       bendpath-nodetypes="cc" />
    <inkscape:path-effect
       effect="show_handles"
       id="path-effect38"
       is_visible="true"
       lpeversion="1"
       nodes="true"
       handles="true"
       original_path="true"
       show_center_node="false"
       original_d="false"
       scale_nodes_and_handles="10" />
    <inkscape:path-effect
       effect="interpolate"
       id="path-effect37"
       is_visible="true"
       lpeversion="1"
       trajectory="m 122.91253,115.77391 v 10.56655"
       equidistant_spacing="true"
       steps="5" />
    <inkscape:path-effect
       effect="envelope"
       id="path-effect36"
       is_visible="true"
       lpeversion="1"
       yy="true"
       xx="true"
       bendpath1="m 37.289837,66.768963 c 15.493246,6.537685 83.420963,5.269732 100.027463,0"
       bendpath2="M 137.3173,66.768963 V 142.1045"
       bendpath3="m 37.289837,142.1045 c 19.33603,6.75329 82.558263,6.71886 100.027463,0"
       bendpath4="M 37.289837,66.768963 V 142.1045"
       bendpath1-nodetypes="cc"
       bendpath3-nodetypes="cc" />
    <inkscape:path-effect
       effect="perspective-envelope"
       up_left_point="37.289837,66.768963"
       up_right_point="137.3173,66.768963"
       down_left_point="37.289837,142.1045"
       down_right_point="137.3173,142.1045"
       id="path-effect35"
       is_visible="true"
       lpeversion="1"
       deform_type="envelope_deformation"
       horizontal_mirror="false"
       vertical_mirror="false"
       overflow_perspective="false" />
    <inkscape:path-effect
       effect="bend_path"
       id="path-effect33"
       is_visible="true"
       lpeversion="1"
       bendpath="m 39.438651,104.55087 c 31.228886,9.49441 63.224489,8.63821 95.796529,0"
       prop_scale="1"
       scale_y_rel="false"
       vertical="false"
       hide_knot="false"
       bendpath-nodetypes="cc" />
    <inkscape:path-effect
       effect="envelope"
       id="path-effect32"
       is_visible="true"
       lpeversion="1"
       yy="true"
       xx="true"
       bendpath1="M 39.478129,75.821138 H 135.27466"
       bendpath2="m 135.27466,75.821138 c -1.05189,19.203704 -5.1017,38.407412 0,57.611112"
       bendpath3="M 39.478129,133.43225 H 135.27466"
       bendpath4="m 39.478129,75.821138 c -8.591053,17.055941 -7.519424,36.527552 0,57.611112"
       bendpath4-nodetypes="cc"
       bendpath2-nodetypes="cc" />
  </defs>
  <sodipodi:namedview
     id="namedview18"
     pagecolor="#505050"
     bordercolor="#ffffff"
     borderopacity="1"
     inkscape:showpageshadow="0"
     inkscape:pageopacity="0"
     inkscape:pagecheckerboard="1"
     inkscape:deskcolor="#505050"
     inkscape:zoom="2.6207065"
     inkscape:cx="103.40723"
     inkscape:cy="105.5059"
     inkscape:window-width="1228"
     inkscape:window-height="678"
     inkscape:window-x="181"
     inkscape:window-y="99"
     inkscape:window-maximized="0"
     inkscape:current-layer="svg18"
     showguides="false" />
  <title
     id="title1">context daddy logo</title>
  <!-- Steam -->
  <path
     d="M 55 38 Q 58 28 55 18 Q 52 8 55 0"
     fill="none"
     stroke="#bbbbbb"
     stroke-width="2.5"
     stroke-linecap="round"
     id="path1" />
  <path
     d="M 85 35 Q 88 25 85 15 Q 82 5 85 -3"
     fill="none"
     stroke="#bbbbbb"
     stroke-width="2.5"
     stroke-linecap="round"
     id="path2" />
  <path
     d="M 115 38 Q 118 28 115 18 Q 112 8 115 0"
     fill="none"
     stroke="#bbbbbb"
     stroke-width="2.5"
     stroke-linecap="round"
     id="path3" />
  <!-- Mug shadow -->
  <ellipse
     cx="85"
     cy="158"
     rx="55"
     ry="8"
     fill="#e0e0e0"
     opacity="0.5"
     id="ellipse3" />
  <!-- Mug body -->
  <path
     d="M 25 52 L 28 145 Q 30 162 85 162 Q 140 162 142 145 L 145 52 Z"
     fill="#ffffff"
     stroke="#444444"
     stroke-width="3"
     id="path4" />
  <!-- Inner rim shadow -->
  <ellipse
     cx="85"
     cy="52"
     rx="58"
     ry="10"
     fill="#f8f8f8"
     stroke="none"
     id="ellipse4" />
  <!-- Mug handle -->
  <path
     id="path5"
     d="M 145 68 L 145 81.126953 C 146.10677 81.157541 147.9133 81.969012 150.43164 83.570312 C 157.767 87.651514 161.43555 92.956413 161.43555 99.486328 C 161.43555 106.01625 157.767 111.3231 150.43164 115.4043 C 147.9133 117.00559 146.10677 117.81707 145 117.84766 L 145 128 C 147 128 150.33333 126.66667 155 124 C 168.33333 117.33333 175 108.66667 175 98 C 175 87.333333 168.33333 78.666667 155 72 C 150.33333 69.333333 147 68 145 68 z M 145 117.84766 L 145 81.126953 C 144.97845 81.126357 144.95266 81.121094 144.93164 81.121094 L 144.93164 117.85352 C 144.95266 117.85352 144.97845 117.84825 145 117.84766 z "
     style="fill:#ffffff;stroke:#444444;stroke-opacity:1;stroke-width:2.5;stroke-dasharray:none" />
  <!-- Mug rim -->
  <ellipse
     cx="85"
     cy="52"
     rx="62"
     ry="12"
     fill="#f5f5f5"
     stroke="#444444"
     stroke-width="3"
     id="ellipse5" />
  <!-- Inner rim ellipse -->
  <ellipse
     cx="85"
     cy="52"
     rx="54"
     ry="9"
     fill="none"
     stroke="#cccccc"
     stroke-width="1"
     id="ellipse6" />
  <!-- "Context" - cylindrical projection: edges wider, middle narrower, verticals straight -->
  <!-- "Daddy!" - cylindrical projection -->
  <text
     xml:space="preserve"
     style="font-weight:600;font-size:14.4971px;font-family:Poppins;-inkscape-font-specification:'Poppins, Semi-Bold';writing-mode:lr-tb;direction:ltr;fill:#c0392b;stroke:none;stroke-width:4.40315;fill-opacity:1"
     x="42.819965"
     y="80.968658"
     id="text18"><tspan
       sodipodi:role="line"
       id="tspan18"
       x="42.819965"
       y="80.968658" /></text>
  <g
     id="g35">
    <path
       id="path31"
       style="font-weight:800;font-size:25.8351px;font-family:Poppins;-inkscape-font-specification:'Poppins Ultra-Bold';fill:none;stroke:#000000;stroke-width:1;stroke-linecap:butt"
       d="m 124.63992,121.07699 c -0.16926,3.66078 -0.34068,7.2863 -0.46675,10.721 -1.39857,0.29749 -2.78692,0.58143 -4.16944,0.85156 -0.29393,-3.37078 -0.55216,-6.90998 -0.80094,-10.51537 1.79582,-0.33068 3.60566,-0.68333 5.43713,-1.05719 z m -2.35581,16.75506 c -0.85328,0.17961 -1.55024,0.13179 -2.09014,-0.14074 -0.52609,-0.29031 -0.80134,-0.73715 -0.82675,-1.3365 -0.0256,-0.60307 0.20998,-1.15435 0.70435,-1.65381 0.51356,-0.50542 1.20007,-0.84308 2.06175,-1.01957 0.84626,-0.17333 1.534,-0.11665 2.06199,0.17239 0.5432,0.28469 0.82356,0.72482 0.84087,1.32498 0.0168,0.5828 -0.23247,1.12775 -0.74888,1.63456 -0.4972,0.50056 -1.16521,0.8423 -2.00319,1.01869 z m -74.676916,-3.84934 c 0.0035,-0.25288 0.0066,-0.50558 0.0095,-0.75809 0.03444,-2.9361 0.02587,-5.96834 0.0058,-8.89752 1.004004,0.24098 1.997956,0.47229 2.982523,0.69402 1.017524,0.22915 1.859093,0.53791 2.535821,0.93665 0.690657,0.38555 1.241276,0.84957 1.654633,1.39563 0.41097,0.54291 0.702848,1.15545 0.874221,1.83647 0.187158,0.66522 0.280893,1.38936 0.278139,2.16849 -0.0028,0.78546 -0.116736,1.43327 -0.342796,1.94403 0,0 0,0 0,0 -0.01717,0.0386 -0.03498,0.0764 -0.05345,0.11348 -0.259936,0.5215 -0.606565,0.91811 -1.040172,1.18854 -0.43233,0.25591 -0.926067,0.39903 -1.480999,0.42863 -0.554832,0.0296 -1.12856,-0.0241 -1.72082,-0.16054 -1.221555,-0.28145 -2.455564,-0.5781 -3.702428,-0.88979 z m -4.312536,-13.72662 c 0.03468,4.11849 0.08252,8.78342 0.0404,12.90657 -0.0079,0.78792 -0.01862,1.57703 -0.03358,2.36694 2.813609,0.77246 5.553891,1.47179 8.238261,2.09646 1.423655,0.33129 2.650498,0.41717 3.684076,0.26663 1.052127,-0.16069 1.920105,-0.50988 2.605046,-1.039 0.705341,-0.52855 1.227407,-1.22686 1.569011,-2.08825 0.177003,-0.44634 0.307898,-0.92514 0.39349,-1.43592 0.08132,-0.48652 0.122067,-1.00281 0.122795,-1.54866 0.0017,-1.29474 -0.212749,-2.47403 -0.632697,-3.52612 -0.407762,-1.06063 -0.984004,-1.99367 -1.726853,-2.79809 -0.732215,-0.80807 -1.607679,-1.48011 -2.632388,-2.02231 -1.01354,-0.54193 -2.115484,-0.93917 -3.317109,-1.20039 -2.689881,-0.58476 -5.459432,-1.24367 -8.310453,-1.97786 z m 18.81304,11.96091 c 0.04983,-0.71842 0.255828,-1.29131 0.615949,-1.71935 0.361634,-0.42984 0.82009,-0.75167 1.375008,-0.96709 0.555989,-0.21583 1.17509,-0.33683 1.858208,-0.36431 0.699421,-0.0403 1.396398,-0.0186 2.093089,0.0659 0.631292,0.0765 1.269555,0.19494 1.916103,0.3552 0.645309,0.14498 1.234188,0.36206 1.768716,0.65342 0.532866,0.29047 0.971205,0.6655 1.315396,1.12683 0.342223,0.44419 0.520073,1.01223 0.529629,1.70197 -4e-6,-3e-4 0.0044,0.32215 0.0044,0.32185 0.02591,1.80453 0.04662,3.59571 0.06083,5.42325 0.0038,0.48647 0.03923,0.95315 0.107189,1.40028 0.06768,0.44529 0.183355,0.78344 0.347986,1.0156 -1.175364,-0.0962 -2.352342,-0.20718 -3.531809,-0.33316 -0.06513,-0.17089 -0.122008,-0.34117 -0.170701,-0.51078 -0.03235,-0.18185 -0.05653,-0.36307 -0.07261,-0.54364 -0.555928,0.42061 -1.214635,0.68146 -1.97341,0.77983 -0.758086,0.0983 -1.535238,0.0923 -2.328543,-0.0178 -0.612128,-0.085 -1.18311,-0.22954 -1.711507,-0.43181 -0.529537,-0.2027 -0.991708,-0.46655 -1.385906,-0.78941 -0.3955,-0.32392 -0.706264,-0.70485 -0.932974,-1.14143 -0.211068,-0.43584 -0.312195,-0.93046 -0.306112,-1.4849 0.0067,-0.61315 0.136005,-1.09531 0.387006,-1.44734 0.268635,-0.36469 0.601321,-0.63583 0.998357,-0.81438 0.414253,-0.17627 0.876077,-0.28343 1.385935,-0.32242 0.526521,-0.0508 1.051294,-0.0764 1.575042,-0.0765 0.523713,-8e-5 1.037907,0.01 1.543224,0.0306 0.50505,0.0206 0.952406,0.01 1.34168,-0.0308 0.389451,-0.0406 0.69691,-0.12831 0.922361,-0.26145 0.163857,-0.10727 0.26291,-0.25994 0.297567,-0.45771 0,0 0,0 0,0 0.01314,-0.0752 0.0171,-0.15689 0.0119,-0.24506 -0.0029,-0.33545 -0.07033,-0.60583 -0.201342,-0.81039 -0.115278,-0.21797 -0.278513,-0.39017 -0.489672,-0.51685 -0.195412,-0.13978 -0.430731,-0.24029 -0.706329,-0.3021 -0.259746,-0.0747 -0.543594,-0.13079 -0.851991,-0.16876 -0.682111,-0.084 -1.217884,-0.0217 -1.608059,0.19042 -0.389546,0.2118 -0.616394,0.61833 -0.680104,1.22041 -1.163012,-0.16178 -2.330606,-0.33774 -3.504522,-0.52807 z m 8.060837,3.34759 c -0.14539,0.0979 -0.331778,0.16969 -0.559169,0.21501 -0.211102,0.0329 -0.446943,0.0556 -0.707427,0.0674 -0.244188,0.0138 -0.504997,0.0179 -0.782353,0.0121 -0.277401,-0.006 -0.555045,-0.005 -0.833033,0.001 -0.261627,0.009 -0.523514,0.0309 -0.785829,0.0663 -0.245844,0.0376 -0.467448,0.10594 -0.664924,0.2053 -0.180856,0.0875 -0.329264,0.21414 -0.445272,0.38022 -0.11581,0.16579 -0.174712,0.38829 -0.176428,0.66764 -0.0016,0.26473 0.05429,0.49556 0.168437,0.69272 0.113902,0.19672 0.269281,0.36446 0.466264,0.50289 0.196809,0.12438 0.426885,0.22536 0.689985,0.30237 0.262895,0.077 0.534134,0.13359 0.813498,0.1697 0.689647,0.0892 1.223586,0.0565 1.600108,-0.093 0.377208,-0.14975 0.655091,-0.34783 0.83425,-0.59232 0.179605,-0.25906 0.284802,-0.52742 0.316569,-0.80416 0.04814,-0.27562 0.07164,-0.4984 0.07096,-0.66744 -2.8e-5,-0.007 -0.0056,-1.11903 -0.0056,-1.1261 z m 14.928555,0.69942 c 0.01435,0.45577 -0.01949,0.8958 -0.102456,1.31998 -0.08263,0.4225 -0.230897,0.80113 -0.445785,1.13568 -0.214622,0.31948 -0.512273,0.57435 -0.893292,0.76341 -0.364149,0.18891 -0.829173,0.27773 -1.393322,0.26371 -0.532069,-0.0132 -0.994567,-0.12481 -1.385637,-0.33274 -0.37618,-0.22181 -0.696341,-0.49925 -0.960583,-0.83155 -0.249312,-0.34682 -0.434059,-0.73454 -0.555256,-1.16288 -0.121688,-0.43006 -0.186544,-0.85894 -0.19565,-1.28627 -0.0098,-0.45775 0.02908,-0.89307 0.115648,-1.30574 0.10263,-0.42804 0.261929,-0.80405 0.477299,-1.12823 0.07142,-0.0999 0.149719,-0.19339 0.234882,-0.28053 0,0 0,0 0,0 0.191669,-0.19729 0.418074,-0.36237 0.679205,-0.49552 0.377992,-0.19273 0.844782,-0.2808 1.40213,-0.26648 0.557215,0.0143 1.021108,0.12625 1.393545,0.33847 0.220012,0.12537 0.415802,0.27287 0.587361,0.44265 0,0 0,1e-5 0,1e-5 0.118233,0.11616 0.224981,0.24289 0.320235,0.38026 0.248243,0.32134 0.427482,0.69878 0.536875,1.13258 0.1085,0.41764 0.170385,0.85547 0.184801,1.31319 z m 0.179506,4.08653 c -0.0011,-0.0319 0.04642,1.38966 0.04537,1.35777 0.637449,0.002 1.274718,5.1e-4 1.911762,-0.005 0.430412,-0.004 0.860666,-0.0101 1.290747,-0.018 10e-7,0 0.06874,-0.001 0.06874,-0.001 -0.110698,-2.68192 -0.21713,-5.57851 -0.310573,-8.22448 -0.08399,-2.44111 -0.164837,-4.9487 -0.242498,-7.38664 2e-6,0 -0.06752,0.001 -0.06752,0.001 -0.219591,0.003 -0.439183,0.006 -0.658778,0.009 -0.880708,0.009 -1.76099,0.0109 -2.641056,0.005 0.460943,15.7178 -0.286233,-9.76887 0.174711,5.94894 0,0 -0.04769,-3.2e-4 -0.04769,-3.2e-4 -0.399338,-0.56845 -0.935662,-0.99964 -1.609282,-1.29648 -0.660334,-0.31258 -1.353743,-0.47992 -2.084174,-0.50332 -0.905467,-0.029 -1.694786,0.11069 -2.372429,0.42328 -0.676079,0.29672 -1.240632,0.70494 -1.694081,1.22702 -0.368793,0.44097 -0.664106,0.94635 -0.885001,1.51629 -0.03974,0.10202 -0.07706,0.20617 -0.111958,0.31245 -0.211336,0.67812 -0.312872,1.38949 -0.301399,2.13437 0.01183,0.768 0.134196,1.51226 0.370967,2.23213 0.251251,0.71604 0.606907,1.35878 1.069821,1.92709 0.476222,0.55224 1.074702,1.0047 1.795758,1.35378 0.718037,0.3341 1.550261,0.51814 2.490953,0.54657 0.826721,0.025 1.561411,-0.0822 2.200403,-0.31786 0.656454,-0.24969 1.17607,-0.6639 1.558856,-1.24027 10e-7,0 0.04835,2e-4 0.04835,2e-4 z m 14.432756,-4.70436 c 0.02132,0.45354 -0.0052,0.89585 -0.08033,1.32699 -0.07481,0.42937 -0.215118,0.82112 -0.421871,1.17515 -0.206758,0.3389 -0.496675,0.62111 -0.870286,0.84559 -0.35678,0.2227 -0.815307,0.35509 -1.374474,0.39458 -0.527101,0.0372 -0.987734,-0.0299 -1.380244,-0.20008 -0.377953,-0.18532 -0.702073,-0.43148 -0.972088,-0.73782 -0.255547,-0.32221 -0.448132,-0.69156 -0.578367,-1.10775 -0.130748,-0.41783 -0.204817,-0.84008 -0.223127,-1.26628 -0.01961,-0.45651 0.0099,-0.89541 0.08783,-1.31624 0.09353,-0.43778 0.244903,-0.82901 0.453364,-1.17362 0.02148,-0.0331 0.04363,-0.0656 0.06645,-0.0976 0.216567,-0.30514 0.493509,-0.56074 0.830702,-0.76729 0.373581,-0.22883 0.837883,-0.36132 1.394226,-0.39962 0.556476,-0.0383 1.021525,0.0303 1.396243,0.20756 0.374051,0.17699 0.679784,0.42362 0.917277,0.74052 0.06339,0.0755 0.122466,0.1549 0.177206,0.23826 0.163063,0.2464 0.287781,0.52772 0.373996,0.84418 0.114086,0.40679 0.18208,0.83794 0.203494,1.29344 z m 0.254468,4.06394 c 0.0248,0.45057 0.05034,0.90176 0.07667,1.35276 1.08038,-0.0961 2.16017,-0.2027 3.24017,-0.31974 -0.14564,-2.40417 -0.26836,-4.85251 -0.37428,-7.22458 -0.12028,-2.75583 -0.22231,-5.57285 -0.31464,-8.32512 -1.13723,0.11746 -2.27116,0.22369 -3.402796,0.31852 0.06768,1.96727 0.139691,3.96151 0.218174,5.93062 10e-7,0 -0.04779,0.004 -0.04779,0.004 -0.405759,-0.53128 -0.947387,-0.91275 -1.625277,-1.14673 -0.664282,-0.25079 -1.360064,-0.35305 -2.090412,-0.30715 -0.904736,0.0568 -1.690301,0.27221 -2.360828,0.65063 -0.668722,0.36213 -1.223646,0.82576 -1.664948,1.39288 -0.324013,0.43151 -0.586853,0.91005 -0.787656,1.4354 -0.06129,0.15957 -0.116784,0.32361 -0.166456,0.49211 -0.195413,0.69983 -0.280126,1.42219 -0.250952,2.16635 0.03008,0.76733 0.170352,1.49936 0.424078,2.19507 0.267976,0.69059 0.638157,1.29688 1.11227,1.81818 0.486936,0.50413 1.091885,0.89644 1.813978,1.17433 0.719134,0.2634 1.54593,0.3665 2.47484,0.30532 0.817096,-0.0538 1.539435,-0.23002 2.164704,-0.52496 0.642564,-0.3108 1.146448,-0.77273 1.513202,-1.38371 -1.1e-5,0 0.04796,-0.004 0.04795,-0.004 z m 12.10889,1.15835 c 0.88081,-2.46208 1.73678,-4.8387 2.65991,-7.37525 8.21465,-22.67972 -6.11895,16.89207 2.0957,-5.78765 -1.21518,0.21562 -2.42367,0.42011 -3.62756,0.61326 -0.18698,0.61716 -1.39,4.57419 -1.57698,5.19136 -0.004,0.0131 -0.8725,2.8648 -0.8765,2.87787 1e-5,0 -0.0484,0.007 -0.0484,0.007 -0.43664,-0.95013 -0.86878,-1.91034 -1.29636,-2.87792 -0.62699,-1.43091 -1.24501,-2.88914 -1.8552,-4.37232 -1.21786,0.16003 -2.43149,0.30752 -3.64235,0.44231 0.60928,1.33253 1.2256,2.64439 1.84969,3.93396 0.97542,1.99879 1.97212,3.96657 2.99153,5.88402 0.10828,0.19063 0.16953,0.40112 0.18359,0.63163 0.019,0.31101 -0.0753,0.61028 -0.28395,0.89754 -0.19195,0.28414 -0.51118,0.47749 -0.95782,0.57799 -0.33582,0.0586 -0.673,0.0961 -1.01138,0.11251 -0.33834,0.0164 -0.66867,0.0307 -0.99085,0.0431 0.0506,0.77523 0.10433,1.55197 0.16173,2.3271 0.35472,-0.017 0.70097,-0.0408 1.03867,-0.0711 0.35476,-0.0192 0.70858,-0.0527 1.06136,-0.10042 1.17132,-0.15833 2.07376,-0.47116 2.70445,-0.92461 0.63434,-0.45609 1.1059,-1.13289 1.42071,-2.03065 0,0 2e-5,-4e-5 2e-5,-4e-5 z M 55.39702,94.894368 c 1.254183,0.226182 2.501311,0.435808 3.73932,0.629495 -0.161902,-1.259553 -0.486986,-2.419333 -0.968888,-3.47142 -0.486347,-1.061789 -1.090097,-1.986313 -1.809127,-2.771539 -0.695689,-0.794171 -1.478694,-1.446747 -2.350846,-1.960993 0,0 -10e-7,0 -10e-7,0 0,0 0,0 0,0 -0.01652,-0.0096 -0.03307,-0.01914 -0.04966,-0.02864 -0.879346,-0.510111 -1.80605,-0.860107 -2.788866,-1.054233 -1.369458,-0.270496 -2.592998,-0.22853 -3.685426,0.125089 -0.972844,0.323348 -1.809238,0.847331 -2.512433,1.572697 0,0 0,0 0,0 -0.07213,0.07499 -0.142871,0.152123 -0.212234,0.231414 -0.73975,0.845638 -1.314149,1.897475 -1.718323,3.156661 -0.40038,1.226816 -0.608822,2.608119 -0.60752,4.143509 0.0013,1.480832 0.208364,2.902417 0.640261,4.279429 0.426635,1.341751 1.044189,2.562391 1.856347,3.665901 0.803416,1.09164 1.787463,2.02903 2.942008,2.80552 1.162925,0.75695 2.461008,1.28782 3.874719,1.58034 1.134561,0.23477 2.1639,0.26269 3.0862,0.0872 0.923409,-0.17565 1.718179,-0.543 2.385134,-1.09958 0.670028,-0.55915 1.197026,-1.29612 1.583341,-2.21044 0.389311,-0.92139 0.612689,-2.00192 0.674067,-3.24293 -1.244308,-0.1966 -2.498672,-0.40923 -3.761259,-0.63844 -0.115851,1.32033 -0.508113,2.3167 -1.184203,2.99036 -0.655226,0.67276 -1.599066,0.88569 -2.830632,0.63018 -0.908634,-0.18852 -1.689711,-0.53828 -2.334064,-1.04173 -0.648001,-0.52431 -1.175882,-1.14494 -1.581945,-1.86026 -0.408805,-0.72015 -0.711238,-1.493622 -0.909845,-2.322586 -0.18263,-0.849466 -0.276993,-1.701797 -0.287153,-2.559656 -0.01069,-0.902239 0.06436,-1.761734 0.221027,-2.579288 0.175013,-0.818687 0.451025,-1.521844 0.825781,-2.109162 0.376045,-0.610222 0.869734,-1.049246 1.481782,-1.317949 0.61277,-0.28969 1.361247,-0.343061 2.249625,-0.162313 0.485348,0.09875 0.948067,0.292071 1.38987,0.581477 0.456401,0.271401 0.865543,0.612644 1.227987,1.024611 0.361131,0.410474 0.666556,0.869051 0.915874,1.375636 0.247491,0.484297 0.414325,1.001883 0.499083,1.551598 z m 9.389405,7.668022 c -0.01913,-0.58449 0.0097,-1.15693 0.08554,-1.71764 0.07619,-0.56325 0.217897,-1.05482 0.424537,-1.47387 0.223372,-0.418587 0.520603,-0.743494 0.891722,-0.97462 0.371094,-0.251257 0.84166,-0.346276 1.413243,-0.286196 0.571147,0.06003 1.051871,0.254893 1.444446,0.587168 0.406282,0.313074 0.72941,0.703982 0.968994,1.172825 0.254353,0.468333 0.440639,0.995693 0.557675,1.580783 0.116477,0.58228 0.185711,1.16651 0.206927,1.75237 0.02111,0.58301 -0.006,1.14901 -0.08207,1.69795 -0.07635,0.52797 -0.226121,1.0005 -0.450053,1.41766 -0.207921,0.39895 -0.506657,0.70571 -0.896544,0.91973 -0.373256,0.21518 -0.847502,0.29251 -1.421734,0.2303 -0.57467,-0.0623 -1.058835,-0.24357 -1.450066,-0.54113 -0.392414,-0.29847 -0.715095,-0.67199 -0.967869,-1.12023 -0.238288,-0.46644 -0.413284,-0.97286 -0.525974,-1.5202 -0.113799,-0.56848 -0.179729,-1.14322 -0.198772,-1.7249 z m -3.43878,-0.46767 c 0.0348,1.15917 0.216458,2.21486 0.551666,3.17563 0.332239,0.95226 0.790498,1.78868 1.376594,2.51119 0.58161,0.69978 1.273517,1.26817 2.073315,1.70245 0.1681,0.0913 0.340315,0.17541 0.516591,0.25235 0,0 0,0 0,0 0.116147,0.0507 0.234057,0.0983 0.353717,0.1428 0.559021,0.21061 1.15629,0.35192 1.790296,0.42229 0.974398,0.10816 1.846449,0.0277 2.613802,-0.23849 0.233845,-0.079 0.456485,-0.17251 0.667923,-0.28037 0.09722,-0.049 0.192076,-0.10097 0.284555,-0.15595 0.381352,-0.22655 0.722397,-0.50407 1.022959,-0.83213 0.534107,-0.60154 0.9341,-1.34731 1.200999,-2.23785 0.268977,-0.89748 0.380107,-1.92656 0.336265,-3.09106 -0.04426,-1.17553 -0.237628,-2.26141 -0.574702,-3.25163 -0.340798,-1.018361 -0.802276,-1.898691 -1.381481,-2.637189 -0.583988,-0.763506 -1.277941,-1.37182 -2.082435,-1.825689 -0.793346,-0.47491 -1.670161,-0.759805 -2.636506,-0.859894 -0.967491,-0.100209 -1.831433,0.0048 -2.596327,0.315877 -0.764295,0.290228 -1.412847,0.756537 -1.947942,1.398614 -0.533149,0.618969 -0.937219,1.403539 -1.211029,2.351308 -0.272379,0.921195 -0.393375,1.968043 -0.35826,3.137743 z m 14.630276,-6.111564 c 0.216271,4.584434 0.389642,9.091204 0.536845,13.582544 1e-6,4e-5 0.005,0.15191 0.005,0.15195 6.7e-5,0.002 0.03012,0.95161 0.03019,0.95369 1.115991,0.0633 2.230762,0.11461 3.344942,0.15401 1.09e-4,0.003 -0.03742,-1.13265 -0.03731,-1.12931 10e-7,4e-5 -0.0052,-0.15225 -0.0052,-0.15221 -0.07014,-2.05047 -0.145452,-4.10061 -0.227692,-6.1666 -0.05997,-1.50662 0.09817,-2.59513 0.474461,-3.24614 0.378127,-0.675294 1.017819,-1.002244 1.924499,-0.985445 0.79689,0.01476 1.365799,0.336044 1.707257,0.968015 0.338269,0.60812 0.536104,1.53219 0.586923,2.75856 0.09281,2.23986 0.177545,4.44617 0.25713,6.6674 10e-7,5e-5 0.0055,0.15237 0.0055,0.15242 1.65e-4,0.005 0.04244,1.22465 0.04261,1.22936 0.929126,0.005 1.858919,0.002 2.78966,-0.01 0,0 0.06294,-8e-4 0.06294,-8e-4 0.164112,-0.002 0.328247,-0.004 0.492406,-0.007 1.85e-4,0.005 -0.04269,-1.20204 -0.0425,-1.19679 2e-6,5e-5 -0.0056,-0.15247 -0.0056,-0.15243 -0.09109,-2.48519 -0.18759,-4.93338 -0.294382,-7.44235 -0.03056,-0.71796 -0.102701,-1.38835 -0.215438,-2.00961 0,0 0,0 0,0 -0.03253,-0.179363 -0.06844,-0.354635 -0.107699,-0.525776 -0.08393,-0.409944 -0.194258,-0.786622 -0.330622,-1.129532 -0.125621,-0.316763 -0.273359,-0.604614 -0.443011,-0.863299 -0.355926,-0.561441 -0.830761,-0.994452 -1.423595,-1.29953 -0.58007,-0.32649 -1.314448,-0.492562 -2.205746,-0.503732 -0.703902,-0.0088 -1.379884,0.193225 -2.032925,0.604557 -0.651783,0.389636 -1.167587,1.029202 -1.550657,1.915045 2e-6,0 -0.07036,-0.0024 -0.07035,-0.0024 -0.03259,-0.724168 -0.06607,-1.449404 -0.100498,-2.176682 -1.055312,-0.03628 -2.111001,-0.08231 -3.16707,-0.138231 z m 18.22217,0.0035 c -0.02233,-0.496575 -0.19885,-4.347419 -0.221182,-4.843994 -1.133437,0.05741 -2.263203,0.104024 -3.389523,0.139599 -0.01762,-0.366055 0.24682,5.214757 0.229204,4.848702 -0.680587,0.02242 -1.360168,0.04076 -2.038816,0.05495 -0.0014,-0.03019 0.132424,2.890607 0.131012,2.860417 0.678225,-0.01463 1.357325,-0.03342 2.037387,-0.05632 0.13077,2.943843 0.247213,5.760953 0.357675,8.667343 0.02685,0.70643 0.15005,1.26918 0.371764,1.69125 0.04426,0.0843 0.09124,0.1644 0.14095,0.24042 0,0 0,0 0,0 0.03475,0.0532 0.07083,0.10432 0.108236,0.15347 0,0 0,0 0,0 0.176014,0.23438 0.381575,0.42361 0.616767,0.56765 0.371761,0.21731 0.788906,0.35029 1.251113,0.39831 0.478409,0.0651 0.979859,0.0821 1.504055,0.0507 0.333631,-0.02 0.675198,-0.0504 1.024681,-0.0913 0.349562,-0.0409 0.667099,-0.0987 0.952175,-0.17272 7.8e-5,0.002 -0.02356,-0.68158 -0.02349,-0.67932 2e-6,4e-5 -0.0054,-0.15203 -0.0054,-0.15198 3.86e-4,0.0109 -0.0774,-2.13523 -0.07702,-2.12434 -0.15821,0.0473 -0.324698,0.0858 -0.499399,0.11561 -0.174658,0.0298 -0.357568,0.0508 -0.548652,0.0629 -0.573167,0.0364 -0.95875,-0.0505 -1.157439,-0.2573 -0.199195,-0.20737 -0.310609,-0.63935 -0.336101,-1.29961 -0.09474,-2.45392 -0.193298,-4.83641 -0.301421,-7.317827 0.827491,-0.04395 1.65703,-0.09382 2.488752,-0.149507 -0.0043,-0.09938 -0.119647,-2.755144 -0.123899,-2.854523 -0.832675,0.05498 -1.663117,0.104161 -2.491432,0.147465 z m 12.857459,4.900602 c -1.89892,0.22797 -3.78206,0.42809 -5.65046,0.5996 0.005,-0.28866 0.0405,-0.61949 0.10661,-0.99319 0.0825,-0.3763 0.2224,-0.739918 0.41944,-1.090779 0.21387,-0.353442 0.49485,-0.655605 0.84342,-0.90674 0.36487,-0.272998 0.82379,-0.437784 1.37895,-0.496218 0.84944,-0.08941 1.49117,0.114888 1.92406,0.616151 0.44708,0.496844 0.77431,1.256183 0.97798,2.271176 z m -5.55176,3.14867 c 3.01498,-0.27912 6.06909,-0.63323 9.16755,-1.05912 0.029,-1.13079 -0.0937,-2.20572 -0.36378,-3.225959 -0.27233,-1.028793 -0.69161,-1.932907 -1.25313,-2.71128 -0.54851,-0.785602 -1.23782,-1.382613 -2.06499,-1.790322 -0.83086,-0.429346 -1.78606,-0.587032 -2.86668,-0.474295 -0.96523,0.100699 -1.83422,0.398882 -2.61335,0.89783 -0.75954,0.495287 -1.40519,1.135613 -1.94005,1.920853 -0.53218,0.760227 -0.930875,1.640899 -1.196607,2.638973 -0.26351,0.98972 -0.374679,2.03535 -0.331187,3.13285 0.04459,1.12515 0.226578,2.13405 0.5503,3.02961 0.337177,0.88741 0.789374,1.62993 1.359489,2.2288 0.449025,0.47167 0.971645,0.84386 1.568515,1.11586 0.1259,0.0574 0.25511,0.11036 0.38763,0.15885 0.0326,0.0121 0.0654,0.0239 0.0984,0.0354 0.8005,0.26208 1.69638,0.33905 2.68709,0.22856 0.36082,-0.0402 0.70819,-0.10269 1.04192,-0.18715 0.16628,-0.0415 0.32916,-0.0884 0.48863,-0.14063 0.78957,-0.25854 1.49555,-0.64868 2.11408,-1.16747 1.00227,-0.84067 1.72818,-2.13335 2.16795,-3.88895 -1.03796,0.14219 -2.07072,0.27628 -3.09846,0.40212 -0.0999,0.45258 -0.39728,0.90906 -0.89254,1.368 -0.49379,0.43896 -1.0927,0.69808 -1.79273,0.77472 -0.97622,0.10688 -1.7319,-0.0975 -2.26812,-0.60835 -0.53923,-0.51369 -0.85327,-1.40336 -0.94995,-2.67892 z m 14.57585,-3.22045 c -1.48995,2.79354 -2.96684,5.47629 -4.47078,8.1261 1.32346,-0.1888 2.65594,-0.3907 3.9979,-0.60539 0.88374,-1.58884 1.76119,-3.19436 2.63985,-4.83247 0.962,1.32402 1.92901,2.61886 2.89827,3.88458 1.40261,-0.25519 2.81739,-0.52369 4.244,-0.80511 -1.7418,-2.0974 -3.47732,-4.27968 -5.19173,-6.54991 1.43636,-2.597613 2.81459,-5.160674 4.24909,-7.879126 -1.38761,0.266315 -2.76568,0.519726 -4.13258,0.760014 -0.73925,1.491952 -1.46766,2.946045 -2.20635,4.399474 -0.82906,-1.181854 -1.65373,-2.388883 -2.47178,-3.621412 -1.38096,0.216365 -2.75249,0.41924 -4.1138,0.608385 1.50218,2.254495 3.02467,4.424981 4.55791,6.514865 z m 15.23478,-10.068577 c -0.0252,-0.904067 -0.0493,-1.814873 -0.0708,-2.72016 -0.0152,-0.668006 -0.0293,-1.340238 -0.0414,-2.012685 -1.29353,0.278155 -2.57698,0.543462 -3.85459,0.796959 0.007,0.344911 0.0137,0.689212 0.0211,1.032286 0.0282,1.235117 0.0618,2.482767 0.0968,3.71402 -0.77024,0.156649 -1.53747,0.309344 -2.30135,0.458047 0.01,0.326545 0.0746,2.494402 0.0841,2.820947 0.7632,-0.149659 1.52983,-0.303293 2.29959,-0.460861 0.0878,2.963924 0.16636,5.642484 0.22986,8.590364 0.0151,0.70233 0.14166,1.24213 0.38249,1.62157 0.23996,0.37807 0.55873,0.64022 0.95763,0.78658 0.41631,0.14241 0.88668,0.19276 1.4116,0.15073 0.54336,-0.0283 1.11544,-0.10833 1.71626,-0.24026 0.3827,-0.084 0.77538,-0.17975 1.17805,-0.28723 0.40302,-0.10757 0.77026,-0.22553 1.101,-0.35334 -0.0116,-0.98189 -0.0268,-1.95919 -0.0453,-2.94166 -0.18365,0.0781 -0.37653,0.14906 -0.57852,0.21283 -0.20189,0.0637 -0.41291,0.12026 -0.63296,0.16953 -0.65959,0.14768 -1.09947,0.13569 -1.32232,-0.0331 -0.22332,-0.16918 -0.34084,-0.5807 -0.35555,-1.23753 -0.0554,-2.474395 -0.12229,-4.771382 -0.19481,-7.253218 0.94779,-0.207354 1.90083,-0.420733 2.85837,-0.640067 0.0269,0.913306 -0.10822,-3.724288 -0.0813,-2.810983 -0.95716,0.218458 -1.91009,0.430896 -2.85796,0.637251 z M 42.065678,72.855073 c 7.958083,1.581937 14.8131,2.67296 22.329671,3.412251 7.220616,0.710184 14.398603,1.015219 21.510301,0.969673 0.421198,-0.002 0.843116,-0.0055 1.265752,-0.01062 7.116822,-0.08662 14.502868,-0.60584 22.121648,-1.4918 8.13674,-0.946192 15.07125,-2.110263 23.76644,-3.650143 1.9549,-0.346204 3.36049,1.308944 3.26426,3.624665 -0.17077,4.10947 -0.0997,8.420635 0.008,12.526159 0.22515,8.551377 0.46672,13.655328 0.40254,22.196858 0,0 0,0 0,0 0,2e-5 -0.001,0.14661 -0.001,0.14664 -0.0598,7.5204 -0.33211,15.03288 -0.40697,22.5459 0,0 0,0 0,0 -0.0288,2.89157 -0.0208,5.82337 0.0723,8.7174 0.0406,1.26072 -1.28906,2.67728 -2.98206,3.14455 -15.20456,4.19644 -28.61127,6.32799 -44.388848,6.65717 -0.577167,0.0116 -1.155494,0.0201 -1.73476,0.0256 -14.940005,0.14143 -28.785415,-1.613 -44.239039,-6.23037 -1.866728,-0.55776 -3.318313,-2.07207 -3.239018,-3.33151 0.189418,-3.00851 0.250434,-6.00512 0.272346,-9.00412 0,0 0,0 0,0 0.05484,-7.5043 -0.121278,-15.00206 -0.09378,-22.5258 0,-2e-5 5.53e-4,-0.14673 5.53e-4,-0.14674 0,0 0,0 0,0 0.02869,-7.39809 0.251184,-14.82145 0.132456,-22.22324 -0.06468,-4.030961 -0.204071,-7.86944 -0.714132,-11.86394 -0.288867,-2.262234 0.806688,-3.855677 2.653367,-3.488587 z"
       inkscape:path-effect="#path-effect40;#path-effect42;#path-effect43"
       inkscape:original-d="m 125.66397,109.61224 -0.59421,12.32334 h -4.31446 l -0.59421,-12.32334 z m -2.73852,19.35049 q -1.34343,0 -2.17015,-0.72339 -0.80089,-0.74922 -0.80089,-1.88596 0,-1.13674 0.80089,-1.88596 0.82672,-0.74922 2.17015,-0.74922 1.31759,0 2.11848,0.74922 0.82672,0.74922 0.82672,1.88596 0,1.11091 -0.82672,1.86013 -0.80089,0.74922 -2.11848,0.74922 z m -78.590322,-3.61692 v -11.62579 h 2.893531 q 1.498436,0 2.506005,0.43919 1.033404,0.41336 1.653446,1.21425 0.620043,0.80089 0.878394,1.93764 0.284186,1.1109 0.284186,2.506 0,1.52427 -0.387527,2.58351 -0.387526,1.05924 -1.033404,1.73095 -0.645877,0.64588 -1.472601,0.93007 -0.826723,0.28418 -1.705116,0.28418 z m -4.056111,-15.03603 v 18.44626 h 7.957211 q 2.118478,0 3.668584,-0.69754 1.575941,-0.72339 2.609345,-1.96347 1.059239,-1.24009 1.575941,-2.9452 0.516702,-1.70512 0.516702,-3.72026 0,-2.29932 -0.645877,-4.00444 -0.620043,-1.70511 -1.756787,-2.84186 -1.110909,-1.13674 -2.661015,-1.70511 -1.524271,-0.56838 -3.306893,-0.56838 z m 18.601252,9.1973 q 0.07751,-1.29176 0.645878,-2.14431 0.568372,-0.85256 1.446765,-1.36926 0.878394,-0.51671 1.963468,-0.72339 1.110909,-0.23251 2.221819,-0.23251 1.007568,0 2.040972,0.15501 1.033404,0.12917 1.885963,0.54253 0.852558,0.41337 1.395095,1.16258 0.542537,0.72339 0.542537,1.93764 v 6.94964 q 0,0.90423 0.103341,1.73095 0.10334,0.82672 0.361691,1.24008 h -3.720254 q -0.103341,-0.31002 -0.180846,-0.62004 -0.05167,-0.33585 -0.07751,-0.67171 -0.878394,0.90423 -2.066808,1.26592 -1.188415,0.36169 -2.4285,0.36169 -0.955898,0 -1.782622,-0.23251 -0.826723,-0.23252 -1.446765,-0.72339 -0.620043,-0.49086 -0.981734,-1.24008 -0.335856,-0.74922 -0.335856,-1.78262 0,-1.13675 0.387526,-1.86013 0.413362,-0.74922 1.033404,-1.18842 0.645878,-0.43919 1.446766,-0.64587 0.826723,-0.23252 1.653446,-0.3617 0.826723,-0.12917 1.627611,-0.20668 0.800889,-0.0775 1.420931,-0.23251 0.620042,-0.15501 0.981734,-0.4392 0.361691,-0.31002 0.335856,-0.87839 0,-0.59421 -0.206681,-0.93007 -0.180845,-0.36169 -0.516702,-0.54253 -0.310021,-0.20668 -0.749218,-0.25835 -0.413361,-0.0775 -0.904228,-0.0775 -1.085074,0 -1.705117,0.46503 -0.620042,0.46503 -0.723383,1.55011 z m 8.473913,2.71268 q -0.232516,0.20669 -0.594207,0.33586 -0.335857,0.10334 -0.749218,0.18085 -0.387527,0.0775 -0.826723,0.12917 -0.439197,0.0517 -0.878394,0.12918 -0.413361,0.0775 -0.826723,0.20668 -0.387526,0.12917 -0.697548,0.36169 -0.284186,0.20668 -0.465031,0.54254 -0.180846,0.33585 -0.180846,0.85255 0,0.49087 0.180846,0.82673 0.180845,0.33585 0.490866,0.54254 0.310022,0.18084 0.723383,0.25835 0.413362,0.0775 0.852559,0.0775 1.085074,0 1.679281,-0.36169 0.594207,-0.36169 0.878393,-0.85256 0.284187,-0.5167 0.335857,-1.0334 0.0775,-0.5167 0.0775,-0.82673 z m 15.991912,-0.18084 q 0,0.82672 -0.155011,1.60177 -0.15501,0.77506 -0.516702,1.3951 -0.361691,0.59421 -0.981733,0.9559 -0.594208,0.36169 -1.498436,0.36169 -0.852559,0 -1.472601,-0.36169 -0.594207,-0.38753 -1.007569,-0.98173 -0.387526,-0.62005 -0.568372,-1.3951 -0.180846,-0.77505 -0.180846,-1.55011 0,-0.82672 0.155011,-1.57594 0.180845,-0.77505 0.542537,-1.36926 0.387526,-0.5942 1.007569,-0.9559 0.620042,-0.36169 1.524271,-0.36169 0.904228,0 1.498436,0.36169 0.594207,0.3617 0.955898,0.9559 0.387527,0.56837 0.542537,1.34343 0.155011,0.74922 0.155011,1.57594 z m 0.05167,5.01201 v 1.70511 h 3.487739 v -18.44626 h -3.668585 v 6.71713 h -0.05167 q -0.620042,-0.98173 -1.705116,-1.4726 -1.059239,-0.5167 -2.247654,-0.5167 -1.472601,0 -2.58351,0.5942 -1.110909,0.56838 -1.860127,1.52427 -0.723383,0.9559 -1.11091,2.22182 -0.361691,1.24009 -0.361691,2.58351 0,1.3951 0.361691,2.68685 0.387527,1.29176 1.11091,2.29933 0.749218,0.98173 1.885962,1.57594 1.136744,0.56837 2.63518,0.56837 1.31759,0 2.350994,-0.46503 1.059239,-0.49087 1.705117,-1.57594 z m 15.733578,-5.01201 q 0,0.82672 -0.155011,1.60177 -0.15501,0.77506 -0.516702,1.3951 -0.361691,0.59421 -0.981734,0.9559 -0.594207,0.36169 -1.498435,0.36169 -0.852559,0 -1.472601,-0.36169 -0.594208,-0.38753 -1.007569,-0.98173 -0.387527,-0.62005 -0.568372,-1.3951 -0.180846,-0.77505 -0.180846,-1.55011 0,-0.82672 0.155011,-1.57594 0.180845,-0.77505 0.542537,-1.36926 0.387526,-0.5942 1.007569,-0.9559 0.620042,-0.36169 1.524271,-0.36169 0.904228,0 1.498435,0.36169 0.594208,0.3617 0.955899,0.9559 0.387527,0.56837 0.542537,1.34343 0.155011,0.74922 0.155011,1.57594 z m 0.05167,5.01201 v 1.70511 h 3.487738 v -18.44626 h -3.668584 v 6.71713 h -0.05167 q -0.620042,-0.98173 -1.705117,-1.4726 -1.059239,-0.5167 -2.247653,-0.5167 -1.472601,0 -2.58351,0.5942 -1.11091,0.56838 -1.860128,1.52427 -0.723382,0.9559 -1.110909,2.22182 -0.361691,1.24009 -0.361691,2.58351 0,1.3951 0.361691,2.68685 0.387527,1.29176 1.110909,2.29933 0.749218,0.98173 1.885963,1.57594 1.136744,0.56837 2.63518,0.56837 1.31759,0 2.350994,-0.46503 1.059239,-0.49087 1.705117,-1.57594 z m 12.840048,3.35856 5.58038,-15.01019 h -3.79776 l -2.91937,9.14562 h -0.0517 l -3.0227,-9.14562 h -3.9011 l 4.67615,12.53002 q 0.15501,0.38753 0.15501,0.82672 0,0.59421 -0.36169,1.08508 -0.33586,0.49087 -1.05924,0.56837 -0.54254,0.0258 -1.08507,-0.0258 -0.54254,-0.0517 -1.05924,-0.10334 v 3.0227 q 0.56837,0.0517 1.11091,0.0775 0.56837,0.0517 1.13674,0.0517 1.88596,0 2.9452,-0.69755 1.05924,-0.69755 1.65345,-2.32516 z M 52.576525,82.460759 h 3.926935 q -0.180846,-1.601776 -0.878393,-2.841861 -0.697548,-1.240085 -1.782622,-2.066808 -1.059239,-0.852558 -2.4285,-1.291755 -1.343425,-0.439197 -2.867696,-0.439197 -2.118478,0 -3.823595,0.749218 -1.679281,0.749218 -2.841861,2.066808 -1.162579,1.31759 -1.782622,3.100212 -0.620042,1.756787 -0.620042,3.823595 0,2.015138 0.620042,3.771925 0.620043,1.730951 1.782622,3.022706 1.16258,1.291755 2.841861,2.040973 1.705117,0.723383 3.823595,0.723383 1.705117,0 3.126047,-0.516702 1.420931,-0.516702 2.48017,-1.498436 1.059239,-0.981734 1.705116,-2.376829 0.645878,-1.395095 0.800889,-3.126047 h -3.926936 q -0.232516,1.860127 -1.291755,2.996871 -1.033404,1.136745 -2.893531,1.136745 -1.36926,0 -2.325159,-0.516702 -0.955899,-0.542537 -1.550106,-1.420931 -0.594207,-0.878393 -0.878393,-1.963467 -0.258351,-1.11091 -0.258351,-2.273489 0,-1.21425 0.258351,-2.350994 0.284186,-1.136745 0.878393,-2.015138 0.594207,-0.904229 1.550106,-1.420931 0.955899,-0.542537 2.325159,-0.542537 0.749218,0 1.420931,0.258351 0.697547,0.232516 1.240084,0.671713 0.542538,0.439197 0.904229,1.033404 0.361691,0.568372 0.465032,1.26592 z m 9.713977,5.580382 q 0,-0.800889 0.155011,-1.575942 0.155011,-0.775053 0.516702,-1.36926 0.387527,-0.594207 1.007569,-0.955899 0.620042,-0.387526 1.550106,-0.387526 0.930064,0 1.550106,0.387526 0.645877,0.361692 1.007569,0.955899 0.387526,0.594207 0.542537,1.36926 0.155011,0.775053 0.155011,1.575942 0,0.800888 -0.155011,1.575941 -0.155011,0.749218 -0.542537,1.36926 -0.361692,0.594207 -1.007569,0.955899 -0.620042,0.361691 -1.550106,0.361691 -0.930064,0 -1.550106,-0.361691 -0.620042,-0.361692 -1.007569,-0.955899 -0.361691,-0.620042 -0.516702,-1.36926 -0.155011,-0.775053 -0.155011,-1.575941 z m -3.668584,0 q 0,1.601776 0.490867,2.893531 0.490867,1.291755 1.395096,2.221818 0.904228,0.904229 2.170148,1.395096 1.26592,0.490867 2.841861,0.490867 1.575941,0 2.841861,-0.490867 1.291755,-0.490867 2.195983,-1.395096 0.904229,-0.930063 1.395096,-2.221818 0.490867,-1.291755 0.490867,-2.893531 0,-1.601777 -0.490867,-2.893532 -0.490867,-1.31759 -1.395096,-2.221818 -0.904228,-0.930064 -2.195983,-1.420931 -1.26592,-0.516702 -2.841861,-0.516702 -1.575941,0 -2.841861,0.516702 -1.26592,0.490867 -2.170148,1.420931 -0.904229,0.904228 -1.395096,2.221818 -0.490867,1.291755 -0.490867,2.893532 z M 74.82053,81.34985 v 13.356746 h 3.668584 v -7.001312 q 0,-2.040973 0.671712,-2.919366 0.671713,-0.904229 2.170149,-0.904229 1.31759,0 1.834292,0.826724 0.516702,0.800888 0.516702,2.454334 v 7.543849 h 3.668584 v -8.215561 q 0,-1.240085 -0.232516,-2.247654 -0.206681,-1.033404 -0.749218,-1.730952 -0.542537,-0.723383 -1.498436,-1.110909 -0.930063,-0.413362 -2.402664,-0.413362 -1.162579,0 -2.273489,0.542537 -1.110909,0.516702 -1.808457,1.679282 h -0.07751 V 81.34985 Z m 19.970539,0 v -4.004441 h -3.668585 v 4.004441 h -2.221818 v 2.454334 h 2.221818 v 7.879706 q 0,1.007569 0.335857,1.627611 0.335856,0.620042 0.904228,0.955899 0.594207,0.335856 1.343425,0.439196 0.775053,0.129176 1.627612,0.129176 0.542537,0 1.110909,-0.02584 0.568372,-0.02584 1.033404,-0.103341 V 91.86473 q -0.258351,0.05167 -0.542537,0.07751 -0.284186,0.02584 -0.594207,0.02584 -0.930064,0 -1.240085,-0.310021 -0.310021,-0.310022 -0.310021,-1.240085 v -6.613786 h 2.68685 V 81.34985 Z m 13.434241,5.244525 h -5.96791 q 0.0258,-0.387527 0.15501,-0.878393 0.15501,-0.490867 0.49087,-0.930064 0.36169,-0.439197 0.93006,-0.723383 0.59421,-0.310021 1.4726,-0.310021 1.34342,0 1.9893,0.723383 0.67172,0.723383 0.93007,2.118478 z m -5.96791,2.325159 h 9.63649 q 0.10334,-1.550106 -0.25835,-2.971037 -0.36169,-1.42093 -1.18842,-2.531839 -0.80088,-1.11091 -2.0668,-1.756787 -1.26592,-0.671713 -2.97104,-0.671713 -1.52427,0 -2.79019,0.542537 -1.24009,0.542537 -2.14431,1.498436 -0.904232,0.930064 -1.395099,2.221819 -0.490867,1.291755 -0.490867,2.790191 0,1.550106 0.465032,2.841861 0.490866,1.291755 1.369264,2.221818 0.87839,0.930064 2.14431,1.446766 1.26592,0.490867 2.84186,0.490867 2.27349,0 3.87527,-1.033404 1.60177,-1.033404 2.37682,-3.436069 h -3.22938 q -0.18085,0.620043 -0.98174,1.188415 -0.80089,0.542537 -1.91179,0.542537 -1.55011,0 -2.37683,-0.800888 -0.82673,-0.800888 -0.90423,-2.58351 z m 15.21685,-1.240085 -4.80532,7.027147 h 4.10778 l 2.79019,-4.211121 2.79019,4.211121 h 4.18529 l -4.93451,-7.104652 4.39197,-6.252094 h -4.05611 l -2.32516,3.487738 -2.351,-3.487738 h -4.18528 z m 15.11356,-6.329599 v -4.004441 h -3.66859 v 4.004441 h -2.22182 v 2.454334 h 2.22182 v 7.879706 q 0,1.007569 0.33586,1.627611 0.33585,0.620042 0.90423,0.955899 0.5942,0.335856 1.34342,0.439196 0.77505,0.129176 1.62761,0.129176 0.54254,0 1.11091,-0.02584 0.56837,-0.02584 1.03341,-0.103341 V 91.86473 q -0.25835,0.05167 -0.54254,0.07751 -0.28419,0.02584 -0.59421,0.02584 -0.93006,0 -1.24008,-0.310021 -0.31002,-0.310022 -0.31002,-1.240085 v -6.613786 h 2.68685 V 81.34985 Z M 40.52204,66.768963 h 93.56305 c 1.79064,0 3.23221,1.441563 3.23221,3.232203 V 138.8723 c 0,1.79064 -1.44157,3.2322 -3.23221,3.2322 H 40.52204 c -1.79064,0 -3.232203,-1.44156 -3.232203,-3.2322 V 70.001166 c 0,-1.79064 1.441563,-3.232203 3.232203,-3.232203 z" />
    <rect
       style="fill:none;fill-opacity:1;stroke:none;stroke-width:4.40315"
       id="rect31"
       width="101.53921"
       height="67.02092"
       x="36.282001"
       y="72.815964"
       rx="3.2322035" />
    <rect
       style="fill:none;fill-opacity:1;stroke:none;stroke-width:4.40315"
       id="rect33"
       width="102.29509"
       height="68.784622"
       x="35.022209"
       y="72.815964"
       rx="3.2322035" />
  </g>
</svg>
